/* XPM */
static char *fire_10[] = {
/* columns rows colors chars-per-pixel */
"96 96 55 1 ",
"  c #150606",
". c #180707",
"X c #1B0907",
"o c #200A09",
"O c #270D0A",
"+ c #2B0F0B",
"@ c #2E100C",
"# c #32110D",
"$ c #35130D",
"% c #38120F",
"& c #311310",
"* c #3E1610",
"= c #46110E",
"- c #4E120D",
"; c #53130C",
": c #411810",
"> c #4B1E12",
", c #5D2916",
"< c #672F19",
"1 c #6B321A",
"2 c #861D06",
"3 c #881E06",
"4 c #901F05",
"5 c #B22601",
"6 c #BB2B01",
"7 c #C53D05",
"8 c #864220",
"9 c #C94707",
"0 c #D35A0B",
"q c #D45B0B",
"w c #D7620D",
"e c #D9650E",
"r c #E17411",
"t c #E47B13",
"y c #E47E15",
"u c #EC9823",
"i c #ED9F27",
"p c #EFA52B",
"a c #F0A82C",
"s c #F2B031",
"d c #F8C63D",
"f c #FACB40",
"g c #FBD042",
"h c #FDD847",
"j c #FFDE4B",
"k c #FFE469",
"l c #FFEEA2",
"z c #FFF0AD",
"x c #FFF1B1",
"c c #FFF2B6",
"v c #FFF3BD",
"b c #FFF4C2",
"n c #FFF6CF",
"m c white",
"M c None",
/* pixels */
"MMMMMMMMMMMMMMMMMMMMMMMMMMMMMMMMMMMMMMMMMMMMMMMMMMMMMMMMMMMMMMMMMMMMMMMMMMMMMMMMMMMMMMMMMMMMMMMM",
"MMMMMMMMMMMMMMMMMMMMMMMMMMMMMMMMMMMMMMMMMMMMMMMMMMMMMMMMMMMMMMMMMMMMMMMMMMMMMMMMMMMMMMMMMMMMMMMM",
"MMMMMMMMMMMMMMMMMMMMMMMMMMMMMMMMMMMMMMMMMMMMMMMMMMMMMMMMMMMMMMMMMMMMMMMMMMMMMMMMMMMMMMMMMMMMMMMM",
"MMMMMMMMMMMMMMMMMMMMMMMMMMMMMMMMMMMMMMMMMMMMMMMMMMMMMMMMMMMMMMMMMMMMMMMMMMMMMMMMMMMMMMMMMMMMMMMM",
"MMMMMMMMMMMMMMMMMMMMMMMMMMMMMMMMMMMMMMMMMMMMMMMMMMMMMMMMMMMMMMMMMMMMMMMMMMMMMMMMMMMMMMMMMMMMMMMM",
"MMMMMMMMMMMMMMMMMMMMMMMMMMMMMMMMMMMMMMMMMMMMMMMMMMMMMMMMMMMMMMMMMMMMMMMMMMMMMMMMMMMMMMMMMMMMMMMM",
"MMMMMMMMMMMMMMMMMMMMMMMMMMMMMMMMMMMMMMMMMMMMMMMMMMMMMMMMMMMMMMMMMMMMMMMMMMMMMMMMMMMMMMMMMMMMMMMM",
"MMMMMMMMMMMMMMMMMMMMMMMMMMMMMMMMMMMMMMMMMMMMMMMMMMMMMMMMMMMMMMMMMMMMMMMMMMMMMMMMMMMMMMMMMMMMMMMM",
"MMMMMMMMMMMMMMMMMMMMMMMMMMMMMMMMMMMMMMMMMMMMMMMMMMMMMMMMMMMMMMMMMMMMMMMMMMMMMMMMMMMMMMMMMMMMMMMM",
"MMMMMMMMMMMMMMMMMMMMMMMMMMMMMMMMMMMMMMMMMMMMMMMMMMMMMMMMMMMMMMMMMMMMMMMMMMMMMMMMMMMMMMMMMMMMMMMM",
"MMMMMMMMMMMMMMMMMMMMMMMMMMMMMMMMMMMMMMMMMMMMMMMMMMMMMMMMMMMMMMMMMMMMMMMMMMMMMMMMMMMMMMMMMMMMMMMM",
"MMMMMMMMMMMMMMMMMMMMMMMMMMMMMMMMMMMMMMMMMMMMMMMMMMMMMMMMMMMMMMMMMMMMMMMMMMMMMMMMMMMMMMMMMMMMMMMM",
"MMMMMMMMMMMMMMMMMMMMMMMMMMMMMMMMMMMMMMMMMMMMMMMMMMMMMMMMMMMMMMMMMMMMMMMMMMMMMMMMMMMMMMMMMMMMMMMM",
"MMMMMMMMMMMMMMMMMMMMMMMMMMMMMMMMMMMMMMMMMMMMMMMMMMMMMMMMMMMMMMMMMMMMMMMMMMMMMMMMMMMMMMMMMMMMMMMM",
"MMMMMMMMMMMMMMMMMMMMMMMMMMMMMMMMMMMMMMMMMMMMMMMMMMMMMMMMMMMMMMMMMMMMMMMMMMMMMMMMMMMMMMMMMMMMMMMM",
"MMMMMMMMMMMMMMMMMMMMMMMMMMMMMMMMMMMMMMMMMMMMMMMMMMMMMMMMMMMMMMMMMMMMMMMMMMMMMMMMMMMMMMMMMMMMMMMM",
"MMMMMMMMMMMMMMMMMMMMMMMMMMMMMMMMMMMMMMMMMMMMMMMMMMMMMMMMMMMMMMMMMMMMMMMMMMMMMMMMMMMMMMMMMMMMMMMM",
"MMMMMMMMMMMMMMMMMMMMMMMMMMMMMMMMMMMMMMMMMMMMMMMMMMMMMMMMMMMMMMMMMMMMMMMMMMMMMMMMMMMMMMMMMMMMMMMM",
"MMMMMMMMMMMMMMMMMMMMMMMMMMMMMMMMMMMMMMMMMMMMMMMMMMMMMMMMMMMMMMMMMMMMMMMMMMMMMMMMMMMMMMMMMMMMMMMM",
"MMMMMMMMMMMMMMMMMMMMMMMMMMMMMMMMMMMMMMMMMMMMMMMMMMMMMMMMMMMMMMMMMMMMMMMMMMMMMMMMMMMMMMMMMMMMMMMM",
"MMMMMMMMMMMMMMMMMMMMMMMMMMMMMMMMMMMMMMMMMMMMMMMMMMMMMMMMMMMMMMMMMMMMMMMMMMMMMMMMMMMMMMMMMMMMMMMM",
"MMMMMMMMMMMMMMMMMMMMMMMMMMMMMMMMMMMMMMMMMMMMMMMMMMMMMMMMMMMMMMMMMMMMMMMMMMMMMMMMMMMMMMMMMMMMMMMM",
"MMMMMMMMMMMMMMMMMMMMMMMMMMMMMMMMMMMMMMMMMMMMMMMMMMMMMMMMMMMMMMMMMMMMMMMMMMMMMMMMMMMMMMMMMMMMMMMM",
"MMMMMMMMMMMMMMMMMMMMMMMMMMMMMMMMMMMMMMMMMMMMMMMMMMMMMMMMMMMMMMMMMMMMMMMMMMMMMMMMMMMMMMMMMMMMMMMM",
"MMMMMMMMMMMMMMMMMMMMMMMMMMMMMMMMMMMMMMMMMMMMMMMMMMMMMMMMMMMMMMMMMMMMMMMMMMMMMMMMMMMMMMMMMMMMMMMM",
"MMMMMMMMMMMMMMMMMMMMMMMMMMMMMMMMMMMMMMMMMMMMMMMMMMMMMMMMMMMMMMMMMMMMMMMMMMMMMMMMMMMMMMMMMMMMMMMM",
"MMMMMMMMMMMMMMMMMMMMMMMMMMMMMMMMMMMMMMMMMMMMMMMMMMMMMMMMMMMMMMMMMMMMMMMMMMMMMMMMMMMMMMMMMMMMMMMM",
"MMMMMMMMMMMMMMMMMMMMMMMMMMMMMMMMMMMMMMMMMMMMMMMMMMMMMMMMMMMMMMMMMMMMMMMMMMMMMMMMMMMMMMMMMMMMMMMM",
"MMMMMMMMMMMMMMMMMMMMMMMMMMMMMMMMMMMMMMMMMMMMMMMMMMMMMMMMMMMMMMMMMMMMMMMMMMMMMMMMMMMMMMMMMMMMMMMM",
"MMMMMMMMMMMMMMMMMMMMMMMMMMMMMMMMMMMMMMMMMMMMMMMMMMMMMMMMMMMMMMMMMMMMMMMMMMMMMMMMMMMMMMMMMMMMMMMM",
"MMMMMMMMMMMMMMMMMMMMMMMMMMMMMMMMMMMMMMMMMMMMMMMMMMMMMMMMMMMMMMMMMMMMMMMMMMMMMMMMMMMMMMMMMMMMMMMM",
"MMMMMMMMMMMMMMMMMMMMMMMMMMMMMMMMMMMMMMMMMMMMMMMMMMMMMMMMMMMMMMMMMMMMMMMMMMMMMMMMMMMMMMMMMMMMMMMM",
"MMMMMMMMMMMMMMMMMMMMMMMMMMMMMMMMMMMMMMMMMMMMMMMMMMMMMMMMMMMMMMMMMMMMMMMMMMMMMMMMMMMMMMMMMMMMMMMM",
"MMMMMMMMMMMMMMMMMMMMMMMMMMMMMMMMMMMMMMMMMMMMMMMMMMMMMMMMMMMMMMMMMMMMMMMMMMMMMMMMMMMMMMMMMMMMMMMM",
"MMMMMMMMMMMMMMMMMMMMMMMMMMMMMMMMMMMMMMMMMMMMMMMMMMMMMMMMMMMMMMMMMMMMMMMMMMMMMMMMMMMMMMMMMMMMMMMM",
"MMMMMMMMMMMMMMMMMMMMMMMMMMMMMMMMMMMMMMMMMMMMMMMMMMMMMMMMMMMMMMMMMMMMMMMMMMMMMMMMMMMMMMMMMMMMMMMM",
"MMMMMMMMMMMMMMMMMMMMMMMMMMMMMMMMMMMMMMMMMMMMMMMMMMMMMMMMMMMMMMMMMMMMMMMMMMMMMMMMMMMMMMMMMMMMMMMM",
"MMMMMMMMMMMMMMMMMMMMMMMMMMMMMMMMMMMMMMMMMMMMMMMMMMMMMMMMMMMMMMMMMMMMMMMMMMMMMMMMMMMMMMMMMMMMMMMM",
"MMMMMMMMMMMMMMMMMMMMMMMMMMMM%%%MMMMMMMMMMMMMMMMMMMMMMMMMMMMMMMMMMMMMMMMMMMMMMMMMMMMMMMMMMMMMMMMM",
"MMMMMMMMMMMMMMMMMMMMMMMMMMMM%%%MMMMMMMMMMMMMMMMMMMMMMMMMMMMMMMMMMMMMMMMMMMMMMMMMMMMMMMMMMMMMMMMM",
"MMMMMMMMMMMMMMMMMMMMMMMMMMMM%%MMMMMMMMMMMMMMMMMMMMMMMMMMMMMMMMMMMMMMMMMMMMMMMMMMMMMMMMMMMMMMMMMM",
"MMMMMMMMMMMMMMMMMMMMMMMMMMMMMMMMMMMMMMMMMMMMMMMMMMMMMMMMMMMMMMMMMMMMMMMMMMMMMMMMMMMMMMMMMMMMMMMM",
"MMMMMMMMMMMMMMMMMMMMMMMMMMMMMMMMMMMMMMMMMMMMMMMMMMMMMMM3333MMMMMMMMMMMMMMMMMMMMMMMMMMMMMMMMMMMMM",
"MMMMMMMMMMMMMMMMMMMMMMMMMMMMMMMMMMMMMMMMMMMMMMMMM MMMM333333MMMMMMMMMMMMMMMMMMMMMMMMMMMMMMMMMMMM",
"MMMMMMMMMMMMMMMMMMMMMMMMMMMMMMMMMMMMMMMMMMMMMMMM  MMMM333333MMMMMMMMMMMMMMMMMMMMMMMMMMMMMMMMMMMM",
"MMMMMMMMMMMMMMMMMMMMMMMMMMMMMMMMMMMMMMMMMMMMMMM    MMM333333MMMMMMMMMMMMMMMMMMMMMMMMMMMMMMMMMMMM",
"MMMMMMMMMMMMMMMMMMMMMMMMMMMMMMMMMMMMMMMMMMMMMMM    MMM333333MMMMMMMMMMMMMMMMMMMMMMMMMMMMMMMMMMMM",
"MMMMMMMMMMMMMMMMMMMMMMMMMMMMMMMMMMMMMMMMMMMMMMM   MMMMM3333MMMMMMMMMMMMMMMMMMMMMMMMMMMMMMMMMMMMM",
"MMMMMMMMMMMMMMMMMMMMMMMMMMMMMMMMMMMMMMMMMMM  MM    MMMMMMMMMMMMMMMMMMMMMMMMMMMMMMMMMMMMMMMMMMMMM",
"MMMMMMMMMMMMMMMMMMMMMMMMMMMMMMMMMMMMMMMMMMM   M   MMMMMMMMMMMMMMMMMMMMMMMMMMMMMMMMMMMMMMMMMMMMMM",
"MMMMMMMMMMMMMMMMMMMMMMMMMMMMMMMMMMMMMMMMMMM     ===MMMMMMMMMMMMMMMMMMMMMMMMMMMMMMMMMMMMMMMMMMMMM",
"MMMMMMMMMMMMMMMMMMMMMMMMMMMMMMMMMMMMMMMMMM      ===MMMMMMMMMMMMMMMMMMMMMMMMMMMMMMMMMMMMMMMMMMMMM",
"MMMMMMMMMMMMMMMMMMMMMMMMMMMMMMMMMMMMMMMMMM      ===MMMMMMMMMMMMMMMMMMMMMMMMMMMMMMMMMMMMMMMMMMMMM",
"MMMMMMMMMMMMMMMMMMMMMMMMMMMMMMMMMMMMMMMMMM       M MMMMMMMMMMMMMMMMMMMMMMMMMMMMMMMMMMMMMMMMMMMMM",
"MMMMMMMMMMMMMMMMMMMMMMMMMMMMMMMMMMMMMMMMMM     $ MMMMMMMMMMMMMMMMMMMMMMMMMMMMMMMMMMMMMMMMMMMMMMM",
"MMMMMMMMMMMMMMMMMMMMMMMMMMMMMMMMMMMMMMMMMM    $$ MMMMMMMMMMMMMMMMMMMMMMMMMMMMMMMMMMMMMMMMMMMMMMM",
"MMMMMMMMMMMMMMMMMMMMMMMMMMMMMMMMMMMMMMMMMM    $$ MMMMMMMMMMMMMMMMMMMMMMMMMMMMMMMMMMMMMMMMMMMMMMM",
"MMMMMMMMMMMMMMMMMMMMMMMMMMMMMMMMMMMMMMMMM    $$$ MMMMMMMMMMMMMMMMMMMMMMMMMMMMMMMMMMMMMMMMMMMMMMM",
"MMMMMMMMMMMMMMMMMMMMMMMMMMMMMMMMMMMMMMMMM    $$$ M MMMMMMMMMMMMMMMMMMMMMMMMMMMMMMMMMMMMMMMMMMMMM",
"MMMMMMMMMMMMMMMMMMMMMMMMMMMMMMMMMMMMMMMMM    $$$   MMMMMMMMMMMMMMMMMMMMMMMMMMMMMMMMMMMMMMMMMMMMM",
"MMMMMMMMMMMMMMMMMMMMMMMMMMMMMMMMMMMMMMMMM    $$$  44444MMMMMMMMMMMMMMMMMMMMMMMMMMMMMMMMMMMMMMMMM",
"MMMMMMMMMMMMMMMMMMMMMMMMMMMMMMMMMMMMMMMMM    $$$  44444MMMMMMMMMMMMMMMMMMMMMMMMMMMMMMMMMMMMMMMMM",
"MMMMMMMMMMMMMMMMMMMMMMMMMMMMMMMMMMMMMMMMM    $$$  44444MMMMMMMMMMMMMMMMMMMMMMMMMMMMMMMMMMMMMMMMM",
"MMMMMMMMMMMMMMMMMMMMMMMMMMMMMMMMMMMMMMMM+   $$$$@@44444MMMMMMMM&&MMMMMMMMMMMMMMMMMMMMMMMMMMMMMMM",
"MMMMMMMMMMMMMMMMMMMMMMMMMMMMMMMMMMMMMMMM+   $**$@@44444MMMMMMMM&&MMMMMMMMMMMMMMMMMMMMMMMMMMMMMMM",
"MMMMMMMMMMMMMMMMMMMMMMMMMMMMMMMMMMMMMMMM    $**$@000000MMMMMMMMMMMMMMMMMMMMMMMMMMMMMMMMMMMMMMMMM",
"MMMMMMMMMMMMMMMMMMMMMMMMMMMMMMMMMMMMMMM+    ***$00000000MMMMMMMMM22MMMMMMMMMMMMMMMMMMMMMMMMMMMMM",
"MMMMMMMMMMMMMMMMMMMMMMMMMMMMMMMMMMMMMMM+    ---@000000000MMMMMMM2222MMMMMMMMMMMMMMMMMMMMMMMMMMMM",
"MMMMMMMMMMMMMMMMMMMMMMMMMMMMMMMMMMMMMM++   ----@000000000MMMMMM22222MMMMMMMMMMMMMMMMMMMMMMMMMMMM",
"MMMMMMMMMMMMMMMMMMMMMMMMMMMMMMMMMMMMM+++   ----@qqqqm0000MMMM%M22222MMMMMMMMMMMMMMMMMMMMMMMMMMMM",
"MMMMMMMMMMMMMMMMMMMMMMMMMMMMMMMMMMMMM++    --55qqqqqqq000MMM%%%M222MMMMMMMMMMMMMMMMMMMMMMMMMMMMM",
"MMMMMMMMMMMMMMMMMMMMMMMMMMMMMMMMMMMM+;;;++O*555qqqqqqq00MMMMM%%MMMMMMMMMMMMMMMMMMMMMMMMMMMMMMMMM",
"MMMMMMMMMMMMMMMMMMMMMMMMMMMMMMMMMMMM+;;;+OOO55aaaaqmqq0@MMMMMMMMMMMMMMMMMMMMMMMMMMMMMMMMMMMMMMMM",
"MMMMMMMMMMMMMMMMMMMMMMMMMMMMMMMMMMM++;;;+O#*aaaamaamqq$$MMMMMMMMMMMMMMMMMMMMMMMMMMMMMMMMMMMMMMMM",
"MMMMMMMMMMMMMMMMMMMMMMMMMMMMMMMMMM+++++9999aaaaaaaamqq777MMMMMMMMMMMMMMMMMMMMMMMMMMMMMMMMMMMMMMM",
"MMMMMMMMMMMMMMMMMMMMMMMMMMMMMMMMMMMMMM99999aaaaaaaaaq77777MMMMMMMMMMMMMMMMMMMMMMMMMMMMMMMMMMMMMM",
"MMMMMMMMMMMMMMMMMMMMMMMMMMMMMMMMMMMMMM9999aaaaaaammaaeee77$MMMMMMMMMMMMMMMMMMMMMMMMMMMMMMMMMMMMM",
"MMMMMMMMMMMMMMMMMMMMMMMMMMMMMMMMMMMMMO9999aaaayyymaaaeeee7$MMMMMMMMMMMMMMMMMMMMMMMMMMMMMMMMMMMMM",
"MMMMMMMMMMMMMMMMMMMMMMMMMMMMMMMMMMMMOO9999appyyyimiyppeeee$$MMMMMMMMMMMMMMMMMMMMMMMMMMMMMMMMMMMM",
"MMMMMMMMMMMMMMMMMMMMMMMMMMMMMMMMMMMMOO9999ppyyyiiiiiyppetttt$MMMMMMMMMMMMMMMMMMMMMMMMMMMMMMMMMMM",
"MMMMMMMMMMMMMMMMMMMMMMMMMMMMMMMMMMMOO#999ppyyyiiiijjjjpssttttMMMMMMMMMMMMMMMMMMMMMMMMMMMMMMMMMMM",
"MMMMMMMMMMMMMMMMMMMMMMMMMMMMMMMMMMMXO>>99ppyyyggjjjjjjjjuuuuuuMMMMMMMMMMMMMMMMMMMMMMMMMMMMMMMMMM",
"MMMMMMMMMMMMMMMMMMMMMMMMMMMMMMMMMXX>>>>66ppyygggjjjjjjjjuuuuuuuMMMMMMMMMMMMMMMMMMMMMMMMMMMMMMMMM",
"MMMMMMMMMMMMMMMMMMMMMMMMMMMMMMMMMX>>>>666ppygggjjjjjjjjjjuuuuuuMMMMMMMMMMMMMMMMMMMMMMMMMMMMMMMMM",
"MMMMMMMMMMMMMMMMMMMMMMMMMMMMMMMM>>>>>>666pffgggjjjjjjjjjjuuuuuuuMMMMMMMMMMMMMMMMMMMMMMMMMMMMMMMM",
"MMMMMMMMMMMMMMMMMMMMMMMMMMMMMMMM>>>>>>666pjjgggjjjjjjjjjjuhhuuuuMMMMMMMMMMMMMMMMMMMMMMMMMMMMMMMM",
"MMMMMMMMMMMMMMMMMMMMMMMMMMMMMMMMMM>>>OO66jjkgggggzzzzzzjjhhhhhuuMMMMMMMMMMMMMMMMMMMMMMMMMMMMMMMM",
"MMMMMMMMMMMMMMMMMMMMMMMMMMMMMMMMMMMMMMO,6jkkgbbbbbbzzzzzddddhhu..MMMMMMMMMMMMMMMMMMMMMMMMMMMMMMM",
"MMMMMMMMMMMMMMMMMMMMMMMMMMMMMMMMMMMMMMo88jkbbxxxbbbbvvvvdddddhu..MMMMMMMMMMMMMMMMMMMMMMMMMMMMMMM",
"MMMMMMMMMMMMMMMMMMMMMMMMMMMMMMMMMMMMMMo88jkbxxxxxbbvvvvvzddddh..MMMMMMMMMMMMMMMMMMMMMMMMMMMMMMMM",
"MMMMMMMMMMMMMMMMMMMMMMMMMMMMMMMMMMMMMMMo+sbbxxnnnvvvvvvvvdddddMMMMMMMMMMMMMMMMMMMMMMMMMMMMMMMMMM",
"MMMMMMMMMMMMMMMMMMMMMMMMMMMMMMMMMMMMMMM++sbbxnnnnnvvvvvvvcddddMMMMMMMMMMMMMMMMMMMMMMMMMMMMMMMMMM",
"MMMMMMMMMMMMMMMMMMMMMMMMMMMMMMMMMMMMMMM+wwbbnnnnnnnvvvvvlldddd<MMMMMMMMMMMMMMMMMMMMMMMMMMMMMMMMM",
"MMMMMMMMMMMMMMMMMMMMMMMMMMMMMMMMMMMMMMM+wwsbnnnnnnnnnvvzllcdd<<MMMMMMMMMMMMMMMMMMMMMMMMMMMMMMMMM",
"MMMMMMMMMMMMMMMMMMMMMMMMMMMMMMMMMMMMM111wwwknnnnnnnnnnnnllcdd<<MMMMMMMMMMMMMMMMMMMMMMMMMMMMMMMMM",
"MMMMMMMMMMMMMMMMMMMMMMMMMMMMMMMMMMMM1111wwwwwnnnnnnnnnnnllcr<<<:MMMMMMMMMMMMMMMMMMMMMMMMMMMMMMMM"
};
