/* XPM */
static char *fire_16[] = {
/* columns rows colors chars-per-pixel */
"96 96 47 1 ",
"  c #150606",
". c #1E0A08",
"X c #260D0A",
"o c #2C0F0B",
"O c #30110C",
"+ c #34130F",
"@ c #38140E",
"# c #3D160F",
"$ c #211611",
"% c #2D1410",
"& c #42100E",
"* c #5C150B",
"= c #4B1E12",
"- c #6B1809",
"; c #7A1B07",
": c #7C1B07",
"> c #771A08",
", c #532314",
"< c #5F2A17",
"1 c #71351B",
"2 c #821C07",
"3 c #921F05",
"4 c #A22303",
"5 c #A42302",
"6 c #AD2501",
"7 c #B12501",
"8 c #C13603",
"9 c #CA4807",
"0 c #CD4E09",
"q c #D2570B",
"w c #DB6A0F",
"e c #DD6E10",
"r c #E88C1D",
"t c #EA9120",
"y c #EC9924",
"u c #F8C73E",
"i c #FBD244",
"p c #FDD847",
"a c #FEDA48",
"s c #FEDD4A",
"d c #FFE25B",
"f c #FFE673",
"g c #FFE77A",
"h c #FFED98",
"j c #FFED9B",
"k c white",
"l c None",
/* pixels */
"llllllllllllllllllllllllllllllllllllllllllllllllllllllllllllllllllllllllllllllllllllllllllllllll",
"llllllllllllllllllllllllllllllllllllllllllllllllllllllllllllllllllllllllllllllllllllllllllllllll",
"llllllllllllllllllllllllllllllllllllllllllllllllllllllllllllllllllllllllllllllllllllllllllllllll",
"llllllllllllllllllllllllllllllllllllllllllllllllllllllllllllllllllllllllllllllllllllllllllllllll",
"llllllllllllllllllllllllllllllllllllllllllllllllllllllllllllllllllllllllllllllllllllllllllllllll",
"llllllllllllllllllllllllllllllllllllllllllllllllllllllllllllllllllllllllllllllllllllllllllllllll",
"llllllllllllllllllllllllllllllllllllllllllllllllllllllllllllllllllllllllllllllllllllllllllllllll",
"llllllllllllllllllllllllllllllllllllllllllllllllllllllllllllllllllllllllllllllllllllllllllllllll",
"llllllllllllllllllllllllllllllllllllllllllllllllllllllllllllllllllllllllllllllllllllllllllllllll",
"llllllllllllllllllllllllllllllllllllllllllllllllllllllllllllllllllllllllllllllllllllllllllllllll",
"llllllllllllllllllllllllllllllllllllllllllllllllllllllllllllllllllllllllllllllllllllllllllllllll",
"llllllllllllllllllllllllllllllllllllllllllllllllllllllllllllllllllllllllllllllllllllllllllllllll",
"llllllllllllllllllllllllllllllllllllllllllllllllllllllllllllllllllllllllllllllllllllllllllllllll",
"llllllllllllllllllllllllllllllllllllllllllllllllllllllllllllllllllllllllllllllllllllllllllllllll",
"llllllllllllllllllllllllllllllllllllllllllllllllllllllllllllllllllllllllllllllllllllllllllllllll",
"llllllllllllllllllllllllllllllllllllllllllllllllllllllllllllllllllllllllllllllllllllllllllllllll",
"llllllllllllllllllllllllllllllllllllllllllllllllllllllllllllllllllllllllllllllllllllllllllllllll",
"llllllllllllllllllllllllllllllllllllllllllllllllllllllllllllllllllllllllllllllllllllllllllllllll",
"llllllllllllllllllllllllllllllllllllllllllllllllllllllllllllllllllllllllllllllllllllllllllllllll",
"llllllllllllllllllllllllllllllllllllllllllllllllllllllllllllllllllllllllllllllllllllllllllllllll",
"llllllllllllllllllllllllllllllllllllllllllllllllllllllllllllllllllllllllllllllllllllllllllllllll",
"llllllllllllllllllllllllllllllllllllllllllllllllllllllllllllllllllllllllllllllllllllllllllllllll",
"llllllllllllllllllllllllllllllllllllllllllllllllllllllllllllllllllllllllllllllllllllllllllllllll",
"llllllllllllllllllllllllllllllllllllllllllllllllllllllllllllllllllllllllllllllllllllllllllllllll",
"llllllllllllllllllllllllllllllllllllllllllllllllllllllllllllllllllllllllllllllllllllllllllllllll",
"llllllllllllllllllllllllllllllllllllllllllllllllllllllllllllllllllllllllllllllllllllllllllllllll",
"llllllllllllllllllllllllllllllllllllllllllllllllllllllllllllllllllllllllllllllllllllllllllllllll",
"lllllllllllllllllllllllllllllllllllllllllllllllllllllll++lllllllllllllllllllllllllllllllllllllll",
"lllllllllllllllllllllllllllllllllllllllllllllllllllllll+++llllllllllllllllllllllllllllllllllllll",
"llllllllllllllllllllllllllllllllllllllllllllllllllllllll+lllllllllllllllllllllllllllllllllllllll",
"llllllllllllllllllllllllllllllllllllllllllllllllllllllllllllllllllllllllllllllllllllllllllllllll",
"llllllllllllllllllllllllllllllllllllllllllllllllllllllllllllllllllllllllllllllllllllllllllllllll",
"llllllllllllllllllllllllllllllllllllllllllllllllllllllllllllllllllllllllllllllllllllllllllllllll",
"llllllllllllllllllllllllllllllllllllllllllllllllllllllllllllllllllllllllllllllllllllllllllllllll",
"llllllllllllllllllllllllllllllllllllllllllllllllllllllllllllllllllllllllllllllllllllllllllllllll",
"llllllllllllllllllllllllllllllllllllllllllllllllllllllllllllllllllllllllllllllllllllllllllllllll",
"llllllllllllllllllllllllllllllllllllllllllllllllllllllllllllllllllllllllllllllllllllllllllllllll",
"llllllllllllllllllllllllllllllllllllllllllllllllll$lllllllllllllllllllllllllllllllllllllllllllll",
"llllllllllllllllllllllllllllllllllllllllllllllllllllllllllllllllllllllllllllllllllllllllllllllll",
"llllllllllllllllllllllllllllllllllllllllllllllllllllllllllllllllllllllllllllllllllllllllllllllll",
"llllllllllllllllllllllllllllllllllllllllllllllllllllllllllllllllllllllllllllllllllllllllllllllll",
"llllllllllllllllllllllllllllllllllllllllllllllllllllllllllllllllllllllllllllllllllllllllllllllll",
"llllllllllllllllllllllllllllllllllllllllllllllll  llllllllllllllllllllllllllllllllllllllllllllll",
"lllllllllllllllllllllllllllllllllllllll l llllll   lllllllllllllllllllllllllllllllllllllllllllll",
"llllllllllllllllllllllllllllllllllllllll    llll  llllllllllllllllllllllllllllllllllllllllllllll",
"llllllllllllllllllllllllllllllllllllllll    lll    lllllllllllllllllllllllllllllllllllllllllllll",
"lllllllllllllllllllllllllllllllllllllll      lll   lllllllllllllllllllllllllllllllllllllllllllll",
"llllllllllllllllllllllllllllllllllllllll      l   llllllllllllllllllllllllllllllllllllllllllllll",
"llllllllllllllllllllllllllllllllllllllll     l    llllllllllllllllllllllllllllllllllllllllllllll",
"lllllllllllllllllllllllllllllllllllllllll    l   lllllllllllllllllllllllllllllllllllllllllllllll",
"lllllllllllllllllllllllllllllllllllllllll    l   lll lllllllllllllllllllllllllllllllllllllllllll",
"lllllllllllllllllllllllllllllllllllllllll        ll     llllllllllllllllllllllllllllllllllllllll",
"lllllllllllllllllllllllllllllllllllllllll     o  l   %   lllllllllllllllllllllllllllllllllllllll",
"lllllllllllllllllllllllllllllllllllllllll    oo         llllllllllllllllllllllllllllllllllllllll",
"llllllllllllllllllllllllllllllllllllllllll   oo   OO    llllllllllllllllllllllllllllllllllllllll",
"llllllllllllllllllllllllllllllllllllllllll   o  O>>>>   llllllllllllllllllllllllllllllllllllllll",
"llllllllllllllllllllllllllllllllllllllllll  ooo >>>>>>  llllllllllllllllllllllllllllllllllllllll",
"llllllllllllllllllllllllllllllllllllllllll  ooo >>>>>>  llllllllllllllllllllllllllllllllllllllll",
"llllllllllllllllllllllllllllllllllllllllll ooooO>>>>>> lllllllllllllllllllllllllllllllllllllllll",
"lllllllllllllllllllllllllllllllllllllllllllooooO>>>>>>llllllllllllllllllllllllllllllllllllllllll",
"lllllllllllllllllllllllllllllllllllllllllllooooOO>>>> llllllllllllllllllllllllllllllllllllllllll",
"lllllllllllllllllllllllllllllllllllllllllllooolOOOOOO llllllllllllllllllllllllllllllllllllllllll",
"lllllllllllllllllllllllllllllllllllllllllloooolOOOOO4444llllllllllllllllllllllllllllllllllllllll",
"lllllllllllllllllllllllllllllllllllllllllloooolO#OO44444llllllllllllllllllllllllllllllllllllllll",
"llllllllllllllllllllllllllllllllllllllllllooooXO##O444444lllllllllllllllllllllllllllllllllllllll",
"llllllllllllllllllllllllllllllllllllllllllo777OO##O444444lllllllllllllllllllllllllllllllllllllll",
"lllllllllllllllllllllllllllllllllllllllll7777777##O44444llllllllll8888llllllllllllllllllllllllll",
"lllllllllllllllllllllllllllllllllllllllll7777777###OO44lllllllllll88888lllllllllllllllllllllllll",
"llllllllllllllllllllllllllllllllllllllll777777777##OO llllllllllll88888lllllllllllllllllllllllll",
"lllllllllllllllllllllllllllllllllllllllw777777777##O   lllllllllll88888lllllllllllllllllllllllll",
"lllllllllllllllllllllllllllllllllllllllw777777777#*** lllllllllllll888llllllllllllllllllllllllll",
"lllllllllllllllllllllllllllllllllllllllww77tttttt&***000000lllllllllllllllllllllllllllllllllllll",
"llllllllllllllllllllllllllllllllllllll.ww7tttttttt&&00000000llllllllllllllllllllllllllllllllllll",
"lllllllllllllllllllllllllllllllllllll..wwwttttttttk&00000000llllllllllllllllllllllllllllllllllll",
"llllllllllllllllllllllllllllllllllll....wwttttttttkk000000000lllllllllllllllllllllllllllllllllll",
"lllllllllllllllllllllllllllllllllll....qqqqqqttttttkk000yyy00lllllllllllllllllllllllllllllllllll",
"lllllllllllllllllllllllllllllllll.....qqqqqqqpppppp9k00yyyyyylllllllllllllllllllllllllllllllllll",
"lllllllllllllllllllllllllllllllll....qqqqqqqppppppiiiiyyyyyyyy:lllllllllllllllllllllllllllllllll",
"llllllllllllllllllllllllllllllll.....qqqqqqqppppiiiiiiiyyyyyyy:lllllllllllllllllllllllllllllllll",
"llllllllllllllllllllllllllllllll....5qqqqqqqpppiiiiiiiiiiyyyyy::llllllllllllllllllllllllllllllll",
"lllllllllllllllllllllllllllllllll...5qqqqqqqpppiiiiiddddiyyyyy::llllllllllllllllllllllllllllllll",
"llllllllllllllllllllllllllllllllll.l.qqqqqqqppiiiiddddddddyyyy:;llllllllllllllllllllllllllllllll",
"lllllllllllllllllllllllllllllllllllllqqqqqqqaaiiuudddddddddyyy;;llllllllllllllllllllllllllllllll",
"lllllllllllllllllllllllllllllllllllll@eqqqgggajjjjsssddddddyy;;;llllllllllllllllllllllllllllllll",
"lllllllllllllllllllllllllllllllllllll#eeugggjjjjjjjjjjddddd;;;;;llllllllllllllllllllllllllllllll",
"llllllllllllllllllllllllllllllllllll##uuggggjjjjjhjjjjjdddd;;;;lllllllllllllllllllllllllllllllll",
"lllllllllllllllllllllllllllllllllll##uuugggjjjjjhjjjjjjjdddlllllllllllllllllllllllllllllllllllll",
"llllllllllllllllllllllllllllllllllOO#uuugggjjjjjhhjjkjjjddd3llllllllllllllllllllllllllllllllllll",
"lllllllllllllllllllllllllllllllllOOOuuuuuggjjjjjhhhhjkjjdd33ooolllllllllllllllllllllllllllllllll",
"lllllllllllllllllllllllllllllllllOOOuuuuuugjjffffffhhkjjdd33oooollllllllllllllllllllllllllllllll",
"lllllllllllllllllllllllllllllllllOOOuuuuuuajffffffffjjkjdd63,oooolllllllllllllllllllllllllllllll",
"lllllllllllllllllllllllllllllllllOOOuuuuuuujfffffffffjkjd663,,,oolllllllllllllllllllllllllllllll",
"lllllllllllllllllllllllllllllllllOOOOuuuuuujfffffffffjjd666,,,,,,ollllllllllllllllllllllllllllll",
"lllllllllllllllllllllllllllllllllOOOOOuuuuusfffffffffrr666-,,,,,,lllllllllllllllllllllllllllllll",
"llllllllllllllllllllllllllllllllllOOOOuuuuusfffffffffr2<<,,,,,,,olllllllllllllllllllllllllllllll",
"llllllllllllllllllllllllllllllllllOOOOOOO=1sffffffff222<<<<,,,llllllllllllllllllllllllllllllllll"
};
