/* XPM */
static char *fire_8[] = {
/* columns rows colors chars-per-pixel */
"96 96 43 1 ",
"  c #150606",
". c #180707",
"X c #200A09",
"o c #240C0A",
"O c #2A0E0B",
"+ c #30110C",
"@ c #35130D",
"# c #37140E",
"$ c #211611",
"% c #3E1610",
"& c #41100E",
"* c #46110E",
"= c #411810",
"- c #721908",
"; c #522214",
": c #5F2A17",
"> c #72361B",
", c #7C3C1D",
"< c #821C06",
"1 c #AC2402",
"2 c #BB2B01",
"3 c #CB4B08",
"4 c #D0530A",
"5 c #D7620D",
"6 c #E37912",
"7 c #E47E15",
"8 c #E68217",
"9 c #E7891B",
"0 c #EC9823",
"q c #EFA42A",
"w c #F1AB2E",
"e c #F7C03A",
"r c #FACB40",
"t c #FBD042",
"y c #FCD445",
"u c #FDD847",
"i c #FFDE4B",
"p c #FFE469",
"a c #FFF0AD",
"s c #FFF2B6",
"d c #FFF4C2",
"f c white",
"g c None",
/* pixels */
"gggggggggggggggggggggggggggggggggggggggggggggggggggggggggggggggggggggggggggggggggggggggggggggggg",
"gggggggggggggggggggggggggggggggggggggggggggggggggggggggggggggggggggggggggggggggggggggggggggggggg",
"gggggggggggggggggggggggggggggggggggggggggggggggggggggggggggggggggggggggggggggggggggggggggggggggg",
"gggggggggggggggggggggggggggggggggggggggggggggggggggggggggggggggggggggggggggggggggggggggggggggggg",
"gggggggggggggggggggggggggggggggggggggggggggggggggggggggggggggggggggggggggggggggggggggggggggggggg",
"gggggggggggggggggggggggggggggggggggggggggggggggggggggggggggggggggggggggggggggggggggggggggggggggg",
"gggggggggggggggggggggggggggggggggggggggggggggggggggggggggggggggggggggggggggggggggggggggggggggggg",
"gggggggggggggggggggggggggggggggggggggggggggggggggggggggggggggggggggggggggggggggggggggggggggggggg",
"gggggggggggggggggggggggggggggggggggggggggggggggggggggggggggggggggggggggggggggggggggggggggggggggg",
"gggggggggggggggggggggggggggggggggggggggggggggggggggggggggggggggggggggggggggggggggggggggggggggggg",
"gggggggggggggggggggggggggggggggggggggggggggggggggggggggggggggggggggggggggggggggggggggggggggggggg",
"gggggggggggggggggggggggggggggggggggggggggggggggggggggggggggggggggggggggggggggggggggggggggggggggg",
"gggggggggggggggggggggggggggggggggggggggggggggggggggggggggggggggggggggggggggggggggggggggggggggggg",
"gggggggggggggggggggggggggggggggggggggggggggggggggggggggggggggggggggggggggggggggggggggggggggggggg",
"gggggggggggggggggggggggggggggggggggggggggggggggggggggggggggggggggggggggggggggggggggggggggggggggg",
"gggggggggggggggggggggggggggggggggggggggggggggggggggggggggggggggggggggggggggggggggggggggggggggggg",
"gggggggggggggggggggggggggggggggggggggggggggggggggggggggggggggggggggggggggggggggggggggggggggggggg",
"gggggggggggggggggggggggggggggggggggggggggggggggggggggggggggggggggggggggggggggggggggggggggggggggg",
"gggggggggggggggggggggggggggggggggggggggggggggggggggggggggggggggggggggggggggggggggggggggggggggggg",
"gggggggggggggggggggggggggggggggggggggggggggggggggggggggggggggggggggggggggggggggggggggggggggggggg",
"gggggggggggggggggggggggggggggggggggggggggggggggggggggggggggggggggggggggggggggggggggggggggggggggg",
"gggggggggggggggggggggggggggggggggggggggggggggggggggggggggggggggggggggggggggggggggggggggggggggggg",
"gggggggggggggggggggggggggggggggggggggggggggggggggggggggggggggggggggggggggggggggggggggggggggggggg",
"gggggggggggggggggggggggggggggggggggggggggggggggggggggggggggggggggggggggggggggggggggggggggggggggg",
"gggggggggggggggggggggggggggggggggggggggggggggggggggggggggggggggggggggggggggggggggggggggggggggggg",
"gggggggggggggggggggggggggggggggggggggggggggggggggggggggggggggggggggggggggggggggggggggggggggggggg",
"gggggggggggggggggggggggggggggggggggggggggggggggggggggggggggggggggggggggggggggggggggggggggggggggg",
"gggggggggggggggggggggggggggggggggggggggggggggggggggggggggggggggggggggggggggggggggggggggggggggggg",
"gggggggggggggggggggggggggggggggggggggggggggggggggggggggggggggggggggggggggggggggggggggggggggggggg",
"gggggggggggggggggggggggggggggggggggggggggggggggggggggggggggggggggggggggggggggggggggggggggggggggg",
"gggggggggggggggggggggggggggggggggggggggggggggggggggggggggggggggggggggggggggggggggggggggggggggggg",
"gggggggggggggggggggggggggggggggggggggggggggggggggggggggggggggggggggggggggggggggggggggggggggggggg",
"gggggggggggggggggggggggggggggggggggggggggggggggggggggggggggggggggggggggggggggggggggggggggggggggg",
"gggggggggggggggggggggggggggggggggggggggggggggggggggggggggggggggggggggggggggggggggggggggggggggggg",
"gggggggggggggggggggggggggggggggggggggggggggggggggggggggggggggggggggggggggggggggggggggggggggggggg",
"gggggggggggggggggggggggggggggggggggggggggggggggggggggggggggggggggggggggggggggggggggggggggggggggg",
"gggggggggggggggggggggggggggggggggggggggggggggggggggggggggggggggggggggggggggggggggggggggggggggggg",
"gggggggggggggggggggggggggggggggggggggggggggggggggggggggggggggggggggggggggggggggggggggggggggggggg",
"gggggggggggggggggggggggggggggggggggggggggggggggggggggggggggggggggggggggggggggggggggggggggggggggg",
"gggggggggggggggggggggggggggggggggggggggggggggggggggggggggggggggggggggggggggggggggggggggggggggggg",
"gggggggggggggggggggggggggggggggggggggggggggggggggggggg ggggggggggggggggggggggggggggggggggggggggg",
"ggggggggggggggggggggggggggggggggggggggggggggggggggggg  ggggggggggggggggggggggggggggggggggggggggg",
"ggggggggggggggggggggggggggggggg&&&gggggggggggggggggg ggggggggggggggggggggggggggggggggggggggggggg",
"gggggggggggggggggggggggggggggg&&&&gggggggggggggggggg ggggggggggggggggggggggggggggggggggggggggggg",
"gggggggggggggggggggggggggggggg&&&&&gggggggggggggggg  ggggggggggggggggggggggggggggggggggggggggggg",
"gggggggggggggggggggggggggggggg&&&&gggggggggggggggggggggggggggggggggggggggggggggggggggggggggggggg",
"gggggggggggggggggggggggggggggggg&ggggggggggggggg   gg111111ggggggggggggggggggggggggggggggggggggg",
"ggggggggggggggggggggggggggggggggggggggggggggggg    gg111111ggggggggggggggggggggggggggggggggggggg",
"ggggggggggggggggggggggggggggggggggggggggggggggg    gg1111111gggggggggggggggggggggggggggggggggggg",
"ggggggggggggggggggggggggggggggggggggggggggggggg   ggg1111111gggggggggggggggggggggggggggggggggggg",
"ggggggggggggggggggggggggggggggggggggggggggggggg .. gg111111ggggggggggggggggggggggggggggggggggggg",
"gggggggggggggggggggggggggggggggggggggggggggggg  X  gg111111ggggggggggggggggggggggggggggggggggggg",
"ggggggggggggggggggggggggggggggggggggggggggggog  XX $ggg11ggggggggggggggggggggggggggggggggggggggg",
"ggggggggggggggggggggggggggggggggggggggggggggog XX  ggggggggggggggggggggggggggggggggggggggggggggg",
"ggggggggggggggggggggggggggggggggggggggggggoooo X---gggggfggggggggggggggggggggggggggggggggggggggg",
"ggggggggggggggggggggggggggggggggggggggggggoooo ----gggggfggggggggggggggggggggggggggggggggggggggg",
"ggggggggggggggggggggggggggggggggggggggggggooooX-----ggggfggggggggggggggggggggggggggggggggggggggg",
"ggggggggggggggggggggggggggggggggggggggggggooooX----gggggfggggggggggggggggggggggggggggggggggggggg",
"ggggggggggggggggggggggggggggggggggggggggggooooXXX-gggggggggggggggggggggggggggggggggggggggggggggg",
"gggggggggggggggggggggggggggggggggggggggggoooooXXX gggggfgggggggggggggggggggggggggggggggggggggggg",
"gggggggggggggggggggggggggggggggggggggggggoooooXXX..ggggfgggggggggggggggggggggggggggggggggggggggg",
"gggggggggggggggggggggggggggggggggggggggggoooooXX....gggfgggggggggggggggggggggggggggggggggggggggg",
"gggggggggggggggggggggggggggggggggggggggggoooo==X....ggggggggggg&&&gggggggggggggggggggggggggggggg",
"gggggggggggggggggggggggggggggggggggggggggoooo==X....222ggggggg&&&&gggggggggggggggggggggggggggggg",
"gggggggggggggggggggggggggggggggggggggggggoooo==....22222gggggg&&&&gggggggggggggggggggggggggggggg",
"ggggggggggggggggggggggggggggggggggggggggooooo==X..2222222ggggg&&&&gggggggggggggggggggggggggggggg",
"ggggggggggggggggggggggggggggggggggggggggoooo===..#2222222ggggggggggggggggggggggggggggggggggggggg",
"ggggggggggggggggggggggggggggggggggggggggooo----.##2222222ggggggggggggggggggggggggggggggggggggggg",
"gggggggggggggggggggggggggggggggggggggggoooo-----##666666gggggggggggggggggggggggggggggggggggggggg",
"gggggggggggggggggggggggggggggggggggggggoooo-----#6666666gggg***222gggggggggggggggggggggggggggggg",
"ggggggggggggggggggggggggggggggggggggg<<<ooo----3333666666ggg**22222ggggggggggggggggggggggggggggg",
"gggggggggggggggggggggggggggggggggggg<<<<oooo--33388866666ggg**222222gggggggggggggggggggggggggggg",
"gggggggggggggggggggggggggggggggggggg<<<<<ooo@338888886666gggg*222222gggggggggggggggggggggggggggg",
"gggggggggggggggggggggggggggggggggggg<<<<o@@@3338888888666gggggg2222ggggggggggggggggggggggggggggg",
"gggggggggggggggggggggggggggggggggggg@o<oo@%%3388888888556ggggggg22gggggggggggggggggggggggggggggg",
"ggggggggggggggggggggggggggggggggggg@@@oo@@%;33rrrr8888556ggggggggggggggggggggggggggggggggggggggg",
"gggggggggggggggggggggggggggggggggggg@@o@@%%%rrrrrrr8000000gggggggggggggggggggggggggggggggggggggg",
"ggggggggggggggggggggggggggggggggggggg@@@%%7rrrrrrrfr000000gggggggggggggggggggggggggggggggggggggg",
"ggggggggggggggggggggggggggggggggggggg@@%q77rrrrrrrfr0000000ggggggggggggggggggggggggggggggggggggg",
"ggggggggggggggggggggggggggggggggggggg@%%77rrrrrrrfrrr000000ggggggggggggggggggggggggggggggggggggg",
"gggggggggggggggggggggggggggggggggggg@%%777rrrrrrrfrrr90wwwwwwwgggggggggggggggggggggggggggggggggg",
"gggggggggggggggggggggggggggggggggggg@%%777rrrrrrrpfpr9ewwwwwwwwggggggggggggggggggggggggggggggggg",
"gggggggggggggggggggggggggggggggggggg@%%777rrrruefeeuppeewwwwwwwggggggggggggggggggggggggggggggggg",
"gggggggggggggggggggggggggggggggggggOOO:7777rreeeeefyypiiewwwwwwwgggggggggggggggggggggggggggggggg",
"gggggggggggggggggggggggggggggggggOO::::4777ueeeeeyyyyyptttttwwwwgggggggggggggggggggggggggggggggg",
"ggggggggggggggggggggggggggggggggOO:::::477uueeedddddyyyttttttwwwgggggggggggggggggggggggggggggggg",
"ggggggggggggggggggggggggggggggggOO:::::447ueeidddddddyyttttttwwwgggggggggggggggggggggggggggggggg",
"gggggggggggggggggggggggggggggggggOgg:::+>4uiiiddddddddytttttttwwgggggggggggggggggggggggggggggggg",
"gggggggggggggggggggggggggggggggggggggg++>>uiiiddddddddytttttttwogggggggggggggggggggggggggggggggg",
"ggggggggggggggggggggggggggggggggggggggO++9iiisddddddddaaaattttwogggggggggggggggggggggggggggggggg",
"ggggggggggggggggggggggggggggggggggggggOO99iidsdddddddsaaaaattooogggggggggggggggggggggggggggggggg",
"gggggggggggggggggggggggggggggggggggggggO99idssssssdddsaaaaattogggggggggggggggggggggggggggggggggg",
"ggggggggggggggggggggggggggggggggggggggg9999sssssssssssaaaaaqqggggggggggggggggggggggggggggggggggg",
"ggggggggggggggggggggggggggggggggggggggg9999sssssssssssaaaaaqqggggggggggggggggggggggggggggggggggg",
"ggggggggggggggggggggggggggggggggggggggg9999ssssssssssaaaaaaqq,gggggggggggggggggggggggggggggggggg",
"ggggggggggggggggggggggggggggggggggggggg9999sssssssssqaaaaaaq,ggggggggggggggggggggggggggggggggggg"
};
