/* XPM */
static char * bricks_xpm[] = {
"16 16 7 1",
" 	c None",
".	c #924335",
"+	c #804037",
"@	c #3E2731",
"#	c #683836",
"$	c #553135",
"%	c #2F202B",
"..+@+++...#@$+..",
"###@##++++.@+#+#",
"#+$@++#+##$@#++#",
"%@@%@@@@@@@%@@@@",
"@##.++.+@#+#..+#",
"@#$+$+++@$++#+++",
"@$$#$##+@$$++$#$",
"%@@%@@@@%@@@@@@@",
"++$%$+..++#@+$.#",
"#$#@+++#++$@$+##",
"+##@$+##.$+@##++",
"@@%%@@@@@@@%%@@@",
"@$$#..+#@+..###$",
"@#+++##.%##++++#",
"@$#+##$#@$++++#$",
"@@@%@@@@%@@@@@@@"};
