/* XPM */
static char * red_xpm[] = {
"16 16 8 1",
" 	c None",
".	c #A22633",
"+	c #E43B44",
"@	c #FEAE34",
"#	c #3E2731",
"$	c #733E39",
"%	c #F77622",
"&	c #C6313C",
".+++@.#$$#.@+++.",
"+.+@+#$$$$#+@+.+",
"++@+#$$@@$$#+@++",
"+@+#$$@%%@$$#+@+",
"@+#$$@%##%@$$#+@",
".#$$@%####%@$$#.",
"#$$@%#&##+#%@$$#",
"$$@%###&+###%@$$",
"$$@%###&+###%@$$",
"#$$@%#&##+#%@$$#",
".#$$@%####%@$$#.",
"@+#$$@%##%@$$#+@",
"+@+#$$@%%@$$#+@+",
"++@+#$$@@$$#+@++",
"+.+@+#$$$$#+@+.+",
".+++@.#$$#.@+++."};
